<svg width="53" height="53" viewBox="0 0 53 53" fill="none" xmlns="http://www.w3.org/2000/svg">
<rect x="4" y="4" width="45" height="45" rx="22.5" fill="#E11D48" stroke="#BE123C" stroke-width="8"/>
<path d="M29.0351 17.0077C28.8933 17.019 28.7288 17.053 28.6664 17.0814C28.6039 17.1098 28.1444 17.1722 27.6451 17.2233C27.1458 17.2743 26.6862 17.3367 26.6238 17.3651C26.5614 17.3935 26.0905 17.4559 25.5742 17.5126C25.0578 17.5637 24.6153 17.6261 24.5812 17.6488C24.5529 17.6715 24.0763 17.7339 23.5316 17.7906C22.9869 17.8474 22.5273 17.9098 22.5103 17.9325C22.4933 17.9495 22.0337 18.0233 21.489 18.0913C19.4862 18.3353 18.9642 18.4091 18.9359 18.4431C18.9188 18.4658 18.4422 18.5282 17.8749 18.585C17.3018 18.6417 16.8366 18.7098 16.8366 18.7381C16.8366 18.7608 16.7401 18.7835 16.6266 18.7835C16.3146 18.7892 15.6791 18.9311 15.6564 19.0048C15.6451 19.0389 15.6054 19.0672 15.5656 19.0672C15.4749 19.0672 15.1458 19.3906 15.1061 19.5268C15.0834 19.5835 15.0493 19.6346 15.021 19.6346C14.9926 19.6346 14.9359 19.7424 14.8961 19.8729C14.8621 20.0091 14.7997 20.1339 14.7656 20.1566C14.6805 20.219 14.6862 22.2616 14.777 22.3637C14.811 22.4091 14.8734 22.5736 14.9132 22.7268C14.9529 22.8857 15.021 23.0445 15.0607 23.0842C15.1004 23.124 15.1344 23.192 15.1344 23.2318C15.1344 23.2715 15.1855 23.3509 15.2479 23.4077C15.4635 23.6062 15.3954 23.6913 14.9359 23.7991C14.6976 23.8559 14.4706 23.9353 14.4252 23.9864C14.3004 24.1112 14.3288 24.514 14.4593 24.514C14.4876 24.514 14.5614 24.5651 14.6238 24.6275C14.6862 24.6899 14.7883 24.741 14.8508 24.741C14.9132 24.741 14.9642 24.7637 14.9642 24.7977C14.9642 24.8261 14.9983 24.8545 15.038 24.8545C15.1628 24.8545 15.4068 25.1268 15.4805 25.3481C15.5146 25.4672 15.5713 25.5807 15.6054 25.5977C15.6337 25.6204 15.6734 25.9722 15.6905 26.3807C15.7132 27.0445 15.7075 27.124 15.6224 27.124C15.5713 27.124 15.5316 27.1467 15.5316 27.175C15.5316 27.2034 15.3387 27.2715 15.1061 27.3282C14.8734 27.385 14.6805 27.4474 14.6805 27.4701C14.6805 27.4984 14.5727 27.5438 14.4422 27.5835C14.1415 27.663 13.9883 27.8162 14.011 28.0147C14.0281 28.1452 14.0678 28.1793 14.3117 28.236C14.4706 28.2701 14.5614 28.3041 14.5273 28.3098C14.4876 28.3098 14.4139 28.4006 14.3628 28.497C14.3117 28.5991 14.2493 28.6956 14.221 28.7126C14.1983 28.7296 14.1359 28.8942 14.0848 29.0814C13.9259 29.6999 14.0054 31.6006 14.1983 31.7991C14.238 31.8389 14.2891 31.9467 14.3061 32.0431C14.3288 32.1396 14.3912 32.2644 14.4479 32.3268C14.5047 32.3835 14.5841 32.4913 14.6181 32.5594C14.6522 32.6275 14.7203 32.6842 14.7656 32.6842C14.811 32.6842 14.8508 32.7069 14.8508 32.7353C14.8508 32.7977 15.1685 32.9679 15.2876 32.9679C15.3273 32.9679 15.3614 32.9906 15.3614 33.019C15.3614 33.0474 15.5032 33.1041 15.6734 33.1438C15.8437 33.1835 15.9855 33.2289 15.9855 33.2516C15.9855 33.2743 16.1444 33.3254 16.3373 33.3651C16.5359 33.3991 16.7969 33.4786 16.9217 33.5353C17.0465 33.592 17.2394 33.6545 17.3472 33.6772C17.455 33.6999 17.6479 33.7623 17.7727 33.819C17.8976 33.8757 18.1472 33.9552 18.3288 33.9892C18.5047 34.0289 18.6522 34.08 18.6522 34.1027C18.6522 34.1254 18.8564 34.1878 19.1061 34.2445C19.3557 34.3013 19.56 34.3694 19.56 34.392C19.56 34.4147 19.6564 34.4488 19.7756 34.4715C19.889 34.4942 20.0876 34.5566 20.2125 34.6133C20.3373 34.6701 20.5869 34.7495 20.7685 34.7835C20.9444 34.8233 21.0919 34.8743 21.0919 34.897C21.0919 34.914 21.2791 34.9764 21.5061 35.0389C21.7273 35.0956 21.943 35.158 21.9713 35.1807C22.0054 35.2034 22.2096 35.2658 22.4252 35.3225C22.6465 35.3793 22.8337 35.4417 22.8508 35.4644C22.8678 35.4814 23.0607 35.5495 23.2763 35.6062C23.4976 35.663 23.6905 35.7367 23.7132 35.7708C23.7586 35.8389 24.3656 35.8332 24.4564 35.7594C24.4961 35.7311 24.7742 35.6573 25.0805 35.6006C25.3812 35.5438 25.6309 35.4814 25.6309 35.4644C25.6309 35.4417 25.8919 35.3793 26.2153 35.3225C26.533 35.2658 26.8054 35.1977 26.8224 35.1807C26.8394 35.1637 27.1117 35.0956 27.4351 35.0389C27.7529 34.9821 28.0139 34.9197 28.0139 34.897C28.0139 34.88 28.2635 34.8176 28.5699 34.7608C28.8706 34.7041 29.1486 34.636 29.177 34.6077C29.211 34.585 29.4153 34.5339 29.6309 34.4942C29.8522 34.4601 30.0394 34.4091 30.0564 34.3864C30.0734 34.3637 30.3174 34.3069 30.5954 34.2502C30.8791 34.1991 31.1571 34.1311 31.2195 34.1027C31.282 34.08 31.577 34.0119 31.872 33.9552C32.1671 33.9041 32.4224 33.8417 32.4394 33.819C32.4564 33.7963 32.7117 33.7339 33.0068 33.6772C33.3018 33.6204 33.5742 33.558 33.6025 33.5353C33.6366 33.5126 33.9032 33.4502 34.1983 33.3935C34.4933 33.3424 34.7656 33.28 34.794 33.2516C34.8281 33.2289 35.038 33.1779 35.2649 33.1381C35.4862 33.0984 35.6734 33.0474 35.6734 33.0247C35.6734 33.002 35.9401 32.9396 36.2692 32.8772C36.5983 32.8204 36.8649 32.758 36.8649 32.7353C36.8649 32.7126 36.9671 32.6842 37.0976 32.6616C37.3018 32.6275 37.3245 32.6105 37.3075 32.48C37.2961 32.3892 37.2281 32.2984 37.1203 32.2417C37.0295 32.1906 36.9444 32.1282 36.933 32.1055C36.9217 32.0885 36.7685 32.0261 36.5926 31.9694C36.4167 31.9126 36.2578 31.8502 36.2408 31.8332C36.2238 31.8105 36.0763 31.7594 35.9174 31.7197L35.6167 31.6516V31.0559C35.6167 30.4601 35.7472 29.6772 35.8493 29.6772C35.8777 29.6772 35.9288 29.6204 35.9628 29.5467C36.0195 29.4275 36.1614 29.3367 36.4564 29.2516C36.5245 29.2346 36.5812 29.1892 36.5812 29.1608C36.5812 29.1325 36.621 29.1098 36.6664 29.1098C36.8082 29.1098 36.9387 28.8488 36.899 28.6389C36.8706 28.4743 36.8309 28.446 36.6096 28.3835L36.3543 28.3155L36.5699 28.1055C36.6834 27.9864 36.8195 27.8218 36.8593 27.7311C36.9047 27.646 36.9614 27.5779 36.9784 27.5779C37.0011 27.5779 37.0522 27.419 37.0919 27.2204C37.1316 27.0275 37.194 26.8516 37.2281 26.8289C37.3132 26.7722 37.3132 24.6956 37.2337 24.6389C37.1997 24.6162 37.1373 24.4913 37.0976 24.3608C37.0522 24.2303 36.9841 24.1112 36.9444 24.0942C36.899 24.0772 36.8649 24.0261 36.8649 23.9864C36.8649 23.9296 37.0011 23.8842 37.2905 23.8332C37.5231 23.7935 37.716 23.7424 37.716 23.714C37.716 23.6913 37.7727 23.663 37.8465 23.6516C37.943 23.6403 37.9713 23.5949 37.9713 23.4644C37.9713 23.3339 37.9316 23.2772 37.8011 23.2147C37.7103 23.1694 37.6195 23.1183 37.6025 23.0899C37.5855 23.0672 37.421 23.0048 37.2337 22.9538C37.0465 22.897 36.882 22.8346 36.8649 22.8119C36.8479 22.7949 36.7231 22.7495 36.5812 22.7211L36.3259 22.6701V21.9155C36.3259 21.4786 36.3486 21.1438 36.3827 21.1211C36.4167 21.0984 36.4734 20.9793 36.5188 20.8545C36.6096 20.5991 36.8479 20.3155 36.9784 20.3098C37.0238 20.3098 37.194 20.236 37.3472 20.1509C37.5685 20.0261 37.6366 19.958 37.6479 19.8332C37.6876 19.5155 37.6252 19.4247 37.3472 19.385C37.2054 19.3623 37.0919 19.3225 37.0919 19.2999C37.0919 19.2772 36.9273 19.2261 36.7288 19.1864C36.5302 19.1467 36.3032 19.0786 36.2238 19.0389C36.1444 18.9991 35.8834 18.9197 35.6337 18.863C35.3898 18.8062 35.1798 18.7438 35.1628 18.7211C35.1458 18.6984 34.9359 18.6417 34.6976 18.585C34.4536 18.5339 34.255 18.4715 34.255 18.4488C34.255 18.4261 34.0905 18.375 33.8862 18.3353C33.682 18.2956 33.5174 18.2445 33.5174 18.2162C33.5174 18.1935 33.3018 18.1311 33.0351 18.0743C32.7685 18.0176 32.5529 17.9552 32.5529 17.9381C32.5529 17.9155 32.3373 17.8474 32.0706 17.7906C31.8039 17.7282 31.5883 17.6601 31.5883 17.6431C31.5883 17.6261 31.3784 17.5637 31.1231 17.5069C30.8621 17.4502 30.6408 17.3878 30.6238 17.3651C30.6068 17.3424 30.4025 17.28 30.1699 17.2233C29.9373 17.1665 29.7217 17.1041 29.6876 17.0814C29.6025 17.0133 29.3188 16.985 29.0351 17.0077ZM16.3259 19.9069C16.3259 19.9353 16.5188 19.9977 16.7515 20.0545C16.9841 20.1112 17.177 20.1736 17.177 20.1963C17.177 20.219 17.3812 20.2871 17.6309 20.3438C17.8805 20.4006 18.0848 20.4686 18.0848 20.4913C18.0848 20.514 18.221 20.5651 18.3855 20.5991C18.5444 20.6389 18.6919 20.6899 18.7089 20.7126C18.7259 20.7296 18.9188 20.792 19.1344 20.8545C19.3557 20.9112 19.56 20.9736 19.5883 20.9963C19.6224 21.019 19.8323 21.0814 20.0593 21.1381C20.2805 21.1892 20.4678 21.2516 20.4678 21.2743C20.4678 21.297 20.672 21.3651 20.9217 21.4218C21.1713 21.4786 21.3756 21.5467 21.3756 21.5694C21.3756 21.592 21.5685 21.6545 21.8011 21.7112C22.0337 21.7679 22.2266 21.8303 22.2266 21.8474C22.2266 21.8701 22.3685 21.9211 22.5387 21.9608C22.7089 22.0006 22.8508 22.0516 22.8508 22.0743C22.8508 22.0913 23.055 22.1538 23.3047 22.2105C23.5543 22.2672 23.7756 22.3353 23.7869 22.358C23.8039 22.3864 24.0082 22.4488 24.2408 22.5055C24.4734 22.5623 24.6664 22.6247 24.6664 22.653C24.6664 22.6757 24.7004 22.6984 24.7401 22.6984C24.7912 22.6984 24.8025 22.9708 24.7742 23.958C24.7515 24.6559 24.7344 25.2686 24.7288 25.3254C24.7231 25.4105 24.689 25.4218 24.5132 25.3878C24.394 25.3651 24.2862 25.3311 24.2692 25.3084C24.2522 25.2857 24.0139 25.2233 23.7302 25.1665C23.4522 25.1098 23.2082 25.0417 23.1912 25.019C23.1742 25.002 22.9472 24.9339 22.6805 24.8828C22.4139 24.8261 22.1812 24.758 22.1642 24.7296C22.1472 24.7069 21.9316 24.6445 21.6876 24.5991C21.438 24.5481 21.2224 24.4913 21.2054 24.463C21.1883 24.4403 20.9557 24.3722 20.6834 24.3155C20.4054 24.2587 20.1841 24.1963 20.1841 24.1736C20.1841 24.1509 20.0082 24.0999 19.7869 24.0601C19.5713 24.0204 19.3898 23.9694 19.3898 23.9523C19.3898 23.9296 19.1685 23.8672 18.8961 23.8105C18.6181 23.7481 18.3855 23.6857 18.3685 23.663C18.3515 23.646 18.1359 23.5835 17.8862 23.5268C17.6366 23.4701 17.3586 23.3906 17.2621 23.3509C17.1713 23.3112 16.9047 23.2431 16.6834 23.2034C16.4564 23.1637 16.2692 23.1126 16.2692 23.0842C16.2692 23.0616 16.2351 23.0389 16.2011 23.0389C16.0763 23.0332 15.9004 22.8516 15.8153 22.6417C15.7699 22.5339 15.7188 22.4318 15.6905 22.4147C15.6678 22.3977 15.6167 22.1367 15.5827 21.8417C15.5089 21.2516 15.5543 20.4743 15.6678 20.3552C15.7075 20.3211 15.7529 20.2417 15.7756 20.185C15.7983 20.1282 15.8947 20.0488 15.9855 20.0147C16.082 19.9807 16.1557 19.9296 16.1557 19.9069C16.1557 19.8842 16.1954 19.8616 16.2408 19.8616C16.2862 19.8616 16.3259 19.8842 16.3259 19.9069ZM35.9004 20.6786C35.9004 20.7183 35.8607 20.8658 35.8096 21.002C35.7472 21.1779 35.7188 21.4842 35.7132 22.0743L35.7018 22.897L35.2763 22.9764C35.0437 23.0218 34.8394 23.0729 34.8224 23.0956C34.8054 23.1183 34.55 23.1807 34.255 23.2374C33.96 23.2942 33.7047 23.3566 33.6876 23.3793C33.6706 23.402 33.4153 23.4644 33.1203 23.5211C32.8252 23.5779 32.5699 23.6403 32.5529 23.663C32.5359 23.6857 32.2805 23.7481 31.9855 23.7991C31.6905 23.8502 31.4238 23.9183 31.3898 23.941C31.3614 23.9694 31.1571 24.0204 30.9359 24.0601C30.7203 24.0999 30.5273 24.1509 30.5103 24.1736C30.4933 24.1906 30.2323 24.2587 29.9316 24.3155C29.6252 24.3722 29.3756 24.4403 29.3756 24.4573C29.3756 24.48 29.1203 24.5424 28.8082 24.5991C28.4961 24.6559 28.2408 24.7183 28.2408 24.741C28.2408 24.7637 27.9628 24.8261 27.6167 24.8828C27.2763 24.9396 26.9926 25.002 26.9926 25.0247C26.9926 25.0417 26.743 25.1098 26.4422 25.1665C26.1359 25.2233 25.8749 25.2857 25.8578 25.3084C25.8408 25.3311 25.7217 25.3708 25.5912 25.3935L25.3472 25.4332L25.3529 24.6162C25.3586 24.1736 25.3756 23.5608 25.3983 23.2658L25.4323 22.7268L25.6479 22.7098C25.7614 22.6984 25.8578 22.6701 25.8578 22.6474C25.8578 22.619 26.1642 22.5509 26.5387 22.4942C26.9132 22.4374 27.2195 22.375 27.2195 22.3523C27.2195 22.3353 27.5373 22.2729 27.9288 22.2162C28.3203 22.1594 28.638 22.097 28.638 22.0743C28.638 22.0516 28.8593 22.0006 29.1373 21.9608C29.4096 21.9211 29.6593 21.8644 29.6876 21.8417C29.7217 21.819 30.0394 21.7566 30.3969 21.6999C30.7543 21.6488 31.0607 21.5864 31.0777 21.5637C31.0947 21.541 31.4068 21.4786 31.7756 21.4218C32.1387 21.3708 32.4394 21.3084 32.4394 21.2857C32.4394 21.263 32.7515 21.1949 33.1373 21.1438C33.5174 21.0871 33.8408 21.019 33.8578 21.002C33.8749 20.9793 34.1869 20.9169 34.5557 20.8601C34.9188 20.8034 35.2195 20.7353 35.2195 20.7069C35.2195 20.6672 35.3841 20.6389 35.7756 20.6105C35.8493 20.6048 35.9004 20.6332 35.9004 20.6786ZM35.9685 24.4573C36.2522 24.5878 36.4678 25.1381 36.4678 25.7169C36.4678 26.0686 36.3656 26.7268 36.3032 26.8119C36.2749 26.8403 36.2408 26.9424 36.2181 27.0275C36.15 27.3112 35.8266 27.5722 35.4578 27.646C35.282 27.68 35.1231 27.7254 35.1061 27.7481C35.089 27.7651 34.8734 27.8275 34.6295 27.8842C34.3798 27.9353 34.1472 28.0034 34.1188 28.0261C34.0848 28.0545 33.943 28.0942 33.8011 28.1169C33.6593 28.1396 33.472 28.1906 33.3756 28.2303C33.2848 28.2701 33.0125 28.3495 32.7798 28.4062C32.5472 28.4573 32.343 28.5197 32.3259 28.5424C32.3089 28.5651 32.0593 28.6275 31.7756 28.6842C31.4862 28.741 31.2479 28.8091 31.2479 28.8261C31.2479 28.8488 31.0266 28.9112 30.7543 28.9679C30.4763 29.0247 30.2437 29.0871 30.2266 29.1098C30.2096 29.1325 29.994 29.1949 29.7444 29.246C29.5004 29.297 29.2791 29.3594 29.2621 29.3821C29.2451 29.4048 29.0692 29.4616 28.8649 29.5013C28.6607 29.541 28.4848 29.592 28.4678 29.6204C28.4508 29.6431 28.2181 29.7112 27.9458 29.7623C27.6678 29.819 27.4465 29.8871 27.4465 29.9098C27.4465 29.9381 27.4068 29.9608 27.3614 29.9608C27.2593 29.9608 27.2706 30.08 27.2252 28.4686L27.1912 27.1807L27.3898 27.124C27.4976 27.0899 27.6337 27.0672 27.6905 27.0672C27.7415 27.0672 27.7869 27.0445 27.7869 27.0218C27.7869 26.9935 27.9798 26.9254 28.2125 26.8686C28.4451 26.8062 28.638 26.7438 28.638 26.7268C28.638 26.7098 28.8309 26.6474 29.0635 26.585C29.2961 26.5282 29.489 26.4658 29.489 26.4431C29.489 26.4204 29.6479 26.3694 29.8465 26.3296C30.0394 26.2899 30.3004 26.2105 30.4252 26.1538C30.55 26.1027 30.7486 26.0403 30.8678 26.0176C30.9812 25.9949 31.0777 25.9608 31.0777 25.9381C31.0777 25.9155 31.2706 25.853 31.5032 25.7906C31.7359 25.7339 31.9288 25.6715 31.9288 25.6488C31.9288 25.6318 32.1217 25.5694 32.3543 25.5069C32.5869 25.4502 32.7798 25.3878 32.7798 25.3651C32.7798 25.3481 32.9954 25.28 33.2621 25.2233C33.5288 25.1608 33.7444 25.0928 33.7444 25.0757C33.7444 25.053 33.9316 24.9906 34.1586 24.9396C34.3798 24.8828 34.5784 24.8204 34.5954 24.7977C34.6125 24.7807 34.7543 24.724 34.9075 24.6842C35.0664 24.6445 35.2025 24.5878 35.2195 24.5708C35.2479 24.5311 35.6281 24.4176 35.7699 24.4062C35.8096 24.4006 35.8947 24.4289 35.9685 24.4573ZM16.7571 25.2176C17.0465 25.2686 17.3472 25.3084 17.4266 25.3084C17.5061 25.3084 17.5742 25.3311 17.5742 25.3594C17.5742 25.3878 17.8749 25.4559 18.2437 25.5126C18.6068 25.5694 18.9188 25.6318 18.9359 25.6545C18.9529 25.6715 19.2649 25.7339 19.6337 25.7906C19.9969 25.8474 20.2976 25.9098 20.2976 25.9325C20.2976 25.9552 20.5415 26.0062 20.8366 26.0516C21.1316 26.0913 21.3756 26.1424 21.3756 26.1594C21.3756 26.1821 21.682 26.2445 22.0564 26.3013C22.4309 26.3523 22.7373 26.4204 22.7373 26.4431C22.7373 26.4658 23.0493 26.5282 23.4351 26.585C23.8153 26.6417 24.1387 26.7041 24.1557 26.7268C24.1727 26.7495 24.4791 26.8119 24.8366 26.8686C25.194 26.9197 25.5174 26.9878 25.5458 27.0105C25.5798 27.0332 25.8238 27.0842 26.0905 27.124L26.5784 27.192L26.6125 27.958C26.6805 29.314 26.6635 29.9608 26.5671 29.9608C26.5217 29.9608 26.482 29.9381 26.482 29.9155C26.482 29.8871 26.2266 29.819 25.9146 29.7623C25.6025 29.7055 25.3472 29.6431 25.3472 29.6204C25.3472 29.5977 25.1486 29.5467 24.9103 29.5069C24.6664 29.4729 24.4451 29.4218 24.411 29.3935C24.3827 29.3708 24.1103 29.3084 23.8153 29.2516C23.5203 29.1949 23.2649 29.1325 23.2479 29.1098C23.2309 29.0871 22.9756 29.0247 22.6805 28.9679C22.3855 28.9112 22.1302 28.8488 22.1132 28.8261C22.0961 28.8034 21.8408 28.741 21.5458 28.6842C21.2508 28.6275 20.9954 28.5651 20.9784 28.5424C20.9614 28.5197 20.7061 28.4573 20.411 28.4006C20.116 28.3438 19.8607 28.2814 19.8437 28.2587C19.8266 28.236 19.6508 28.1906 19.4465 28.1509C19.2422 28.1169 19.0266 28.0601 18.9642 28.0318C18.9018 28.0091 18.6068 27.941 18.3117 27.8842C18.0167 27.8332 17.7614 27.7708 17.7444 27.7481C17.7273 27.7254 17.4777 27.663 17.194 27.6062C16.9047 27.5552 16.6664 27.4871 16.6664 27.4587C16.6664 27.4303 16.6096 27.4077 16.5415 27.4077C16.2919 27.4077 16.2805 27.3623 16.2805 26.5055C16.2805 26.046 16.2578 25.6772 16.2295 25.6545C16.1954 25.6374 16.1557 25.524 16.133 25.4048C16.1103 25.2857 16.0763 25.1495 16.0593 25.0984C16.0309 25.0303 16.0479 25.0247 16.133 25.0701C16.1898 25.1041 16.4734 25.1722 16.7571 25.2176ZM15.7018 28.9282C15.7018 28.9566 15.8437 29.0133 16.0139 29.053C16.1841 29.0928 16.3259 29.1438 16.3259 29.1665C16.3259 29.1892 16.4734 29.2346 16.655 29.2743C16.8309 29.314 17.0522 29.3821 17.1373 29.4218C17.2224 29.4672 17.4777 29.5467 17.7047 29.5977C17.9316 29.6545 18.1245 29.7112 18.1415 29.7339C18.1586 29.7566 18.3515 29.819 18.5671 29.8757C18.7883 29.9325 18.9756 30.0006 18.9926 30.0176C19.0096 30.0403 19.2082 30.1027 19.4351 30.1594C19.6564 30.2162 19.8437 30.2842 19.8437 30.3069C19.8437 30.3296 19.9401 30.3637 20.0593 30.3864C20.1727 30.4091 20.3713 30.4715 20.4961 30.5282C20.621 30.585 20.882 30.6644 21.0805 30.6984C21.2734 30.7381 21.4323 30.7892 21.4323 30.8062C21.4323 30.8289 21.6195 30.897 21.8465 30.9538C22.0678 31.0105 22.2664 31.0729 22.2834 31.0956C22.3004 31.1126 22.4933 31.1807 22.7089 31.2374C22.9302 31.2942 23.1174 31.3566 23.1344 31.3793C23.1515 31.402 23.3387 31.4587 23.5543 31.5155C23.7642 31.5665 23.9742 31.6459 24.0195 31.6913C24.116 31.7878 24.1387 33.5353 24.0422 33.5353C24.0082 33.5353 23.9855 33.7225 23.9855 33.9835V34.4318L23.7756 34.3807C23.6564 34.3467 23.5203 34.3069 23.4749 34.2899C23.3898 34.2559 22.7146 34.0686 21.9997 33.8871C21.7954 33.836 21.6195 33.7793 21.6025 33.7623C21.5855 33.7396 21.3642 33.6828 21.1032 33.6261C20.8422 33.5694 20.5586 33.4899 20.4791 33.4445C20.394 33.3991 20.2749 33.3651 20.2125 33.3651C20.0706 33.3594 19.611 33.2403 19.5203 33.1779C19.4862 33.1552 19.2593 33.0984 19.0096 33.0474C18.7656 32.9963 18.5557 32.9396 18.5387 32.9169C18.5217 32.8942 18.2947 32.8318 18.0281 32.775C17.7614 32.7183 17.5231 32.6559 17.489 32.6275C17.4607 32.6048 17.2791 32.5538 17.0919 32.514C16.9047 32.4743 16.7401 32.4233 16.7231 32.4062C16.6947 32.3608 16.1954 32.2417 15.8323 32.1906C15.7302 32.1736 15.6451 32.1452 15.6451 32.1225C15.6451 32.0999 15.5543 32.0488 15.4465 32.0091C15.3387 31.9694 15.2479 31.9013 15.2479 31.8559C15.2479 31.8105 15.2082 31.7594 15.1628 31.7424C15.0664 31.7027 14.9075 31.2204 14.9075 30.9708C14.9075 30.8857 14.8848 30.8119 14.8508 30.8119C14.8167 30.8119 14.794 30.585 14.794 30.2445C14.794 29.9041 14.8167 29.6772 14.8508 29.6772C14.8848 29.6772 14.9075 29.6318 14.9075 29.5694C14.9075 29.3878 15.072 29.053 15.1628 29.053C15.2139 29.053 15.2649 29.0133 15.282 28.9679C15.316 28.8772 15.7018 28.8431 15.7018 28.9282ZM35.1628 29.6147C35.1628 29.6488 35.1231 29.8417 35.072 30.0573C35.0039 30.341 34.9869 30.636 35.0039 31.1637L35.0266 31.8842L34.499 31.9807C34.2096 32.0374 33.9713 32.0999 33.9713 32.1169C33.9713 32.1396 33.716 32.202 33.4039 32.2587C33.0919 32.3155 32.8366 32.3779 32.8366 32.4006C32.8366 32.4233 32.638 32.4743 32.3997 32.514C32.1557 32.5538 31.9344 32.6048 31.9004 32.6332C31.872 32.6559 31.6167 32.7183 31.333 32.775C31.055 32.8261 30.811 32.8885 30.794 32.9112C30.777 32.9282 30.5047 32.9963 30.1869 33.053C29.8635 33.1098 29.6025 33.1722 29.6025 33.1949C29.6025 33.2119 29.3529 33.28 29.0522 33.3367C28.7458 33.3935 28.4848 33.4559 28.4678 33.4786C28.4508 33.5013 28.2011 33.5637 27.9061 33.6147C27.6167 33.6715 27.333 33.7396 27.282 33.7623C27.2309 33.7906 27.0153 33.853 26.794 33.8984C26.3174 34.0006 25.3869 34.2332 24.95 34.3523C24.7798 34.4034 24.6323 34.4431 24.6266 34.4431C24.6153 34.4431 24.6096 33.9552 24.6096 33.3651C24.6096 32.6842 24.6323 32.2871 24.6664 32.2871C24.7004 32.2871 24.7231 32.1566 24.7231 32.0034C24.7231 31.7878 24.7458 31.7197 24.8082 31.7197C24.8536 31.7197 24.8933 31.7027 24.8933 31.6743C24.8933 31.6516 25.1997 31.5835 25.5685 31.5268C25.943 31.4701 26.255 31.402 26.2664 31.3679C26.2777 31.3339 26.5217 31.3055 26.8224 31.2942C27.3614 31.2828 28.0139 31.1694 28.0139 31.0956C28.0139 31.0389 28.4054 30.9424 28.8252 30.897C29.0011 30.8743 29.1486 30.8346 29.1486 30.8119C29.1486 30.7835 29.455 30.7211 29.8295 30.6644C30.2039 30.6077 30.5103 30.5452 30.5103 30.5225C30.5103 30.5055 30.7543 30.4545 31.0493 30.4091C31.3444 30.3694 31.5883 30.3183 31.5883 30.3013C31.5883 30.2786 31.6848 30.2445 31.8039 30.2275C31.9174 30.2105 32.2181 30.1651 32.4678 30.1311C32.7174 30.0913 32.933 30.0459 32.95 30.0233C32.9671 30.0006 33.2848 29.9325 33.6593 29.8757C34.0337 29.819 34.3515 29.7566 34.3685 29.7339C34.3855 29.7112 34.55 29.6658 34.7373 29.6374C34.9245 29.6034 35.0947 29.575 35.1231 29.5694C35.1458 29.5694 35.1628 29.5864 35.1628 29.6147Z" fill="white"/>
</svg>
